<svg width="43" height="43" viewBox="0 0 43 43" fill="none" xmlns="http://www.w3.org/2000/svg">
<rect width="43" height="43" fill="#1E1E1E"/>
<g id="&#208;&#180;&#208;&#184;&#208;&#183;&#208;&#176;&#208;&#185;&#208;&#189;">
<rect width="22269" height="10308" transform="translate(-2283 -185)" fill="#D6D6D6"/>
<g id="&#208;&#168;&#208;&#176;&#208;&#191;&#208;&#186;&#208;&#176;">
<g id="&#208;&#168;&#208;&#176;&#208;&#191;&#208;&#186;&#208;&#176;_2">
<g id="Frame 1">
<rect width="1923" height="235" transform="translate(-1655 -31)" fill="#FFB400"/>
<g id="Group 25">
</g>
<g id="&#240;&#159;&#166;&#134; icon &#34;profile circled&#34;">
<path id="Vector" d="M21.5 1C10.1782 1 1 10.1782 1 21.5C1 32.8217 10.1782 42 21.5 42C32.8217 42 42 32.8217 42 21.5C42 10.1782 32.8217 1 21.5 1Z" stroke="white" stroke-width="2" stroke-linecap="round" stroke-linejoin="round"/>
<path id="Vector_2" d="M5.65576 34.5085C5.65576 34.5085 10.2253 28.6748 21.5002 28.6748C32.7752 28.6748 37.3449 34.5085 37.3449 34.5085" stroke="white" stroke-width="2" stroke-linecap="round" stroke-linejoin="round"/>
<path id="Vector_3" d="M21.5001 21.4997C24.8967 21.4997 27.6501 18.7464 27.6501 15.3497C27.6501 11.9532 24.8967 9.19971 21.5001 9.19971C18.1035 9.19971 15.3501 11.9532 15.3501 15.3497C15.3501 18.7464 18.1035 21.4997 21.5001 21.4997Z" stroke="white" stroke-width="2" stroke-linecap="round" stroke-linejoin="round"/>
</g>
</g>
</g>
</g>
</g>
</svg>
