<svg width="43" height="43" viewBox="0 0 43 43" fill="none" xmlns="http://www.w3.org/2000/svg">
<g id="&#240;&#159;&#166;&#134; icon &#34;cart&#34;">
<path id="Vector" d="M36.8748 41.9996C38.573 41.9996 39.9498 40.6228 39.9498 38.9246C39.9498 37.2264 38.573 35.8496 36.8748 35.8496C35.1766 35.8496 33.7998 37.2264 33.7998 38.9246C33.7998 40.6228 35.1766 41.9996 36.8748 41.9996Z" fill="#FFB400" stroke="white" stroke-width="2" stroke-linecap="round" stroke-linejoin="round"/>
<path id="Vector_2" d="M16.3748 41.9996C18.073 41.9996 19.4498 40.6228 19.4498 38.9246C19.4498 37.2264 18.073 35.8496 16.3748 35.8496C14.6765 35.8496 13.2998 37.2264 13.2998 38.9246C13.2998 40.6228 14.6765 41.9996 16.3748 41.9996Z" fill="#FFB400" stroke="white" stroke-width="2" stroke-linecap="round" stroke-linejoin="round"/>
<path id="Vector_3" d="M7.15 5.1H42L37.9 27.65H11.25L7.15 5.1ZM7.15 5.1C6.80833 3.73333 5.1 1 1 1" stroke="white" stroke-width="2" stroke-linecap="round" stroke-linejoin="round"/>
<path id="Vector_4" d="M37.9004 27.6504H11.2504H7.62347C3.96563 27.6504 2.02539 29.2519 2.02539 31.7504C2.02539 34.2489 3.96563 35.8504 7.62347 35.8504H36.8754" stroke="white" stroke-width="2" stroke-linecap="round" stroke-linejoin="round"/>
</g>
</svg>
