<svg width="55" height="55" viewBox="0 0 55 55" fill="none" xmlns="http://www.w3.org/2000/svg">
<g id="&#240;&#159;&#166;&#134; icon &#34;globe&#34;">
<path id="Vector" d="M27.5 54C42.1354 54 54 42.1354 54 27.5C54 12.8644 42.1354 1 27.5 1C12.8644 1 1 12.8644 1 27.5C1 42.1354 12.8644 54 27.5 54Z" stroke="white" stroke-width="2" stroke-linecap="round" stroke-linejoin="round"/>
<path id="Vector_2" d="M2.3252 28.8252L16.9002 34.1252L14.2502 43.4002L16.9002 51.3502" stroke="white" stroke-width="2" stroke-linecap="round" stroke-linejoin="round"/>
<path id="Vector_3" d="M40.7498 50.0252L39.4248 43.4002L32.7998 40.7502V31.4752L40.7498 28.8252L52.6748 30.1502" stroke="white" stroke-width="2" stroke-linecap="round" stroke-linejoin="round"/>
<path id="Vector_4" d="M46.0502 10.2749L44.7252 14.2499L35.4502 15.5749V23.5249L42.0752 20.8749H47.3752L52.6752 23.5249" stroke="white" stroke-width="2" stroke-linecap="round" stroke-linejoin="round"/>
<path id="Vector_5" d="M2.3252 23.5249L8.9502 18.2249L15.5752 16.8999L20.8752 8.9499L18.2252 3.6499" stroke="white" stroke-width="2" stroke-linecap="round" stroke-linejoin="round"/>
</g>
</svg>
